<svg xmlns="http://www.w3.org/2000/svg" xmlns:xlink="http://www.w3.org/1999/xlink" width="500" zoomAndPan="magnify" viewBox="0 0 375 374.999991" height="500" preserveAspectRatio="xMidYMid meet" version="1.0"><defs><g/><clipPath id="id1"><path d="M 57 136.941406 L 133 136.941406 L 133 204 L 57 204 Z M 57 136.941406 " clip-rule="nonzero"/></clipPath><clipPath id="id2"><path d="M 29 185 L 160.25 185 L 160.25 220 L 29 220 Z M 29 185 " clip-rule="nonzero"/></clipPath><clipPath id="id3"><path d="M 122 218 L 151 218 L 151 238.191406 L 122 238.191406 Z M 122 218 " clip-rule="nonzero"/></clipPath><clipPath id="id4"><path d="M 38 218 L 68 218 L 68 238.191406 L 38 238.191406 Z M 38 218 " clip-rule="nonzero"/></clipPath></defs><g clip-path="url(#id1)"><path fill="#4abd96" d="M 76.160156 203.4375 L 94.625 165.3125 L 113.085938 203.4375 C 120.707031 202.511719 127.253906 201.027344 132.0625 199.175781 L 102.09375 136.941406 L 87.15625 136.941406 L 57.183594 199.175781 C 61.996094 201.027344 68.539062 202.511719 76.160156 203.4375 " fill-opacity="1" fill-rule="nonzero"/></g><g clip-path="url(#id2)"><path fill="#4abd96" d="M 127.351562 185.890625 C 135.636719 188.210938 140.757812 191.40625 140.757812 194.929688 C 140.757812 202.011719 120.101562 207.753906 94.625 207.753906 C 69.144531 207.753906 48.492188 202.011719 48.492188 194.929688 C 48.492188 191.40625 53.609375 188.210938 61.898438 185.890625 C 42.25 189.042969 29.023438 194.941406 29.023438 201.699219 C 29.023438 211.769531 58.394531 219.933594 94.625 219.933594 C 130.851562 219.933594 160.222656 211.769531 160.222656 201.699219 C 160.222656 194.941406 147 189.042969 127.351562 185.890625 " fill-opacity="1" fill-rule="nonzero"/></g><g clip-path="url(#id3)"><path fill="#18795b" d="M 129.917969 238.191406 L 150.851562 238.191406 L 141.410156 218.589844 C 135.890625 220.046875 129.371094 221.25 122.136719 222.117188 L 129.917969 238.191406 " fill-opacity="1" fill-rule="nonzero"/></g><g clip-path="url(#id4)"><path fill="#18795b" d="M 38.394531 238.191406 L 59.328125 238.191406 L 67.113281 222.117188 C 59.878906 221.25 53.355469 220.046875 47.835938 218.589844 L 38.394531 238.191406 " fill-opacity="1" fill-rule="nonzero"/></g><path fill="#334a63" d="M 120.371094 218.476562 L 122.136719 222.117188 C 129.371094 221.25 135.890625 220.046875 141.410156 218.589844 L 139.660156 214.957031 C 134.070312 216.425781 127.550781 217.621094 120.371094 218.476562 " fill-opacity="1" fill-rule="nonzero"/><path fill="#334a63" d="M 49.585938 214.957031 L 47.835938 218.589844 C 53.355469 220.046875 59.878906 221.25 67.113281 222.117188 L 68.875 218.476562 C 61.699219 217.621094 55.175781 216.425781 49.585938 214.957031 " fill-opacity="1" fill-rule="nonzero"/><g fill="#231f20" fill-opacity="1"><g transform="translate(155.446048, 184.964784)"><g><path d="M 15.234375 -22.359375 L 24.578125 0 L 19.40625 0 L 17.375 -4.796875 L 7.890625 -4.796875 L 5.90625 0 L 0.6875 0 L 10.03125 -22.359375 Z M 15.578125 -9.15625 L 12.65625 -16.1875 L 9.71875 -9.15625 Z M 15.578125 -9.15625 "/></g></g></g><g fill="#231f20" fill-opacity="1"><g transform="translate(180.8634, 184.964784)"><g><path d="M 21.078125 -22.359375 L 25.578125 -22.359375 L 25.578125 0 L 20.828125 0 L 20.828125 -14.765625 L 15.484375 -7.28125 L 11.671875 -7.28125 L 6.28125 -14.546875 L 6.28125 0 L 1.484375 0 L 1.484375 -22.359375 L 6.03125 -22.359375 L 13.59375 -12.046875 Z M 21.078125 -22.359375 "/></g></g></g><g fill="#231f20" fill-opacity="1"><g transform="translate(208.078252, 184.964784)"><g><path d="M 15.484375 -12.171875 C 16.367188 -11.566406 17.070312 -10.785156 17.59375 -9.828125 C 18.125 -8.867188 18.390625 -7.8125 18.390625 -6.65625 C 18.390625 -5.726562 18.207031 -4.859375 17.84375 -4.046875 C 17.488281 -3.242188 17.003906 -2.539062 16.390625 -1.9375 C 15.785156 -1.34375 15.078125 -0.867188 14.265625 -0.515625 C 13.460938 -0.171875 12.597656 0 11.671875 0 L 1.515625 0 L 1.515625 -22.359375 L 11.359375 -22.359375 C 12.203125 -22.359375 12.988281 -22.195312 13.71875 -21.875 C 14.457031 -21.550781 15.101562 -21.113281 15.65625 -20.5625 C 16.21875 -20.019531 16.65625 -19.378906 16.96875 -18.640625 C 17.289062 -17.910156 17.453125 -17.125 17.453125 -16.28125 C 17.453125 -15.375 17.273438 -14.578125 16.921875 -13.890625 C 16.578125 -13.210938 16.097656 -12.640625 15.484375 -12.171875 Z M 6.3125 -13.96875 L 11.359375 -13.96875 C 11.921875 -13.96875 12.398438 -14.164062 12.796875 -14.5625 C 13.203125 -14.96875 13.40625 -15.457031 13.40625 -16.03125 C 13.40625 -16.59375 13.203125 -17.0625 12.796875 -17.4375 C 12.398438 -17.820312 11.921875 -18.015625 11.359375 -18.015625 L 6.3125 -18.015625 Z M 11.671875 -4.328125 C 12.304688 -4.328125 12.84375 -4.59375 13.28125 -5.125 C 13.71875 -5.664062 13.9375 -6.289062 13.9375 -7 C 13.9375 -7.738281 13.71875 -8.359375 13.28125 -8.859375 C 12.84375 -9.367188 12.304688 -9.625 11.671875 -9.625 L 6.3125 -9.625 L 6.3125 -4.328125 Z M 11.671875 -4.328125 "/></g></g></g><g fill="#231f20" fill-opacity="1"><g transform="translate(227.756224, 184.964784)"><g><path d="M 9.625 -22.359375 L 9.625 -18.328125 L 7.953125 -18.328125 L 7.953125 -4 L 9.625 -4 L 9.625 0 L 1.484375 0 L 1.484375 -4 L 3.15625 -4 L 3.15625 -18.328125 L 1.484375 -18.328125 L 1.484375 -22.359375 Z M 9.625 -22.359375 "/></g></g></g><g fill="#231f20" fill-opacity="1"><g transform="translate(238.982791, 184.964784)"><g><path d="M 0.71875 -22.359375 L 16.90625 -22.359375 L 16.90625 -18.015625 L 11.203125 -18.015625 L 11.203125 0 L 6.4375 0 L 6.4375 -18.015625 L 0.71875 -18.015625 Z M 0.71875 -22.359375 "/></g></g></g><g fill="#231f20" fill-opacity="1"><g transform="translate(256.768654, 184.964784)"><g><path d="M 9.625 -22.359375 L 9.625 -18.328125 L 7.953125 -18.328125 L 7.953125 -4 L 9.625 -4 L 9.625 0 L 1.484375 0 L 1.484375 -4 L 3.15625 -4 L 3.15625 -18.328125 L 1.484375 -18.328125 L 1.484375 -22.359375 Z M 9.625 -22.359375 "/></g></g></g><g fill="#231f20" fill-opacity="1"><g transform="translate(267.995216, 184.964784)"><g><path d="M 12.046875 -22.6875 C 13.566406 -22.6875 15 -22.378906 16.34375 -21.765625 C 17.6875 -21.160156 18.859375 -20.332031 19.859375 -19.28125 C 20.859375 -18.226562 21.644531 -17.003906 22.21875 -15.609375 C 22.800781 -14.222656 23.09375 -12.742188 23.09375 -11.171875 C 23.09375 -9.609375 22.800781 -8.125 22.21875 -6.71875 C 21.644531 -5.3125 20.859375 -4.082031 19.859375 -3.03125 C 18.859375 -1.976562 17.6875 -1.140625 16.34375 -0.515625 C 15 0.0976562 13.566406 0.40625 12.046875 0.40625 C 10.535156 0.40625 9.101562 0.0976562 7.75 -0.515625 C 6.40625 -1.140625 5.238281 -1.976562 4.25 -3.03125 C 3.269531 -4.082031 2.488281 -5.3125 1.90625 -6.71875 C 1.332031 -8.125 1.046875 -9.609375 1.046875 -11.171875 C 1.046875 -12.742188 1.332031 -14.222656 1.90625 -15.609375 C 2.488281 -17.003906 3.269531 -18.226562 4.25 -19.28125 C 5.238281 -20.332031 6.40625 -21.160156 7.75 -21.765625 C 9.101562 -22.378906 10.535156 -22.6875 12.046875 -22.6875 Z M 12.046875 -4.359375 C 12.910156 -4.359375 13.71875 -4.535156 14.46875 -4.890625 C 15.226562 -5.242188 15.890625 -5.726562 16.453125 -6.34375 C 17.023438 -6.96875 17.472656 -7.691406 17.796875 -8.515625 C 18.128906 -9.335938 18.296875 -10.222656 18.296875 -11.171875 C 18.296875 -12.117188 18.128906 -13.003906 17.796875 -13.828125 C 17.472656 -14.660156 17.023438 -15.382812 16.453125 -16 C 15.890625 -16.625 15.226562 -17.113281 14.46875 -17.46875 C 13.71875 -17.832031 12.910156 -18.015625 12.046875 -18.015625 C 11.179688 -18.015625 10.367188 -17.832031 9.609375 -17.46875 C 8.859375 -17.113281 8.195312 -16.625 7.625 -16 C 7.0625 -15.382812 6.613281 -14.660156 6.28125 -13.828125 C 5.957031 -13.003906 5.796875 -12.117188 5.796875 -11.171875 C 5.796875 -10.222656 5.957031 -9.335938 6.28125 -8.515625 C 6.613281 -7.691406 7.0625 -6.96875 7.625 -6.34375 C 8.195312 -5.726562 8.859375 -5.242188 9.609375 -4.890625 C 10.367188 -4.535156 11.179688 -4.359375 12.046875 -4.359375 Z M 12.046875 -4.359375 "/></g></g></g><g fill="#231f20" fill-opacity="1"><g transform="translate(292.2773, 184.964784)"><g><path d="M 14.140625 -22.359375 L 18.890625 -22.359375 L 18.890625 -8.078125 C 18.890625 -6.960938 18.660156 -5.890625 18.203125 -4.859375 C 17.742188 -3.828125 17.113281 -2.921875 16.3125 -2.140625 C 15.507812 -1.367188 14.578125 -0.75 13.515625 -0.28125 C 12.453125 0.175781 11.3125 0.40625 10.09375 0.40625 C 8.894531 0.40625 7.757812 0.175781 6.6875 -0.28125 C 5.613281 -0.75 4.679688 -1.367188 3.890625 -2.140625 C 3.109375 -2.921875 2.484375 -3.828125 2.015625 -4.859375 C 1.554688 -5.890625 1.328125 -6.960938 1.328125 -8.078125 L 1.328125 -22.359375 L 6.09375 -22.359375 L 6.09375 -9.015625 C 6.09375 -8.390625 6.195312 -7.796875 6.40625 -7.234375 C 6.613281 -6.679688 6.894531 -6.1875 7.25 -5.75 C 7.613281 -5.320312 8.039062 -4.984375 8.53125 -4.734375 C 9.03125 -4.484375 9.550781 -4.359375 10.09375 -4.359375 C 10.664062 -4.359375 11.191406 -4.484375 11.671875 -4.734375 C 12.148438 -4.984375 12.570312 -5.320312 12.9375 -5.75 C 13.3125 -6.1875 13.601562 -6.679688 13.8125 -7.234375 C 14.03125 -7.796875 14.140625 -8.390625 14.140625 -9.015625 Z M 14.140625 -22.359375 "/></g></g></g><g fill="#231f20" fill-opacity="1"><g transform="translate(312.617501, 184.964784)"><g><path d="M 15.703125 -11.515625 C 16.585938 -10.984375 17.257812 -10.304688 17.71875 -9.484375 C 18.1875 -8.671875 18.421875 -7.726562 18.421875 -6.65625 C 18.421875 -5.644531 18.175781 -4.703125 17.6875 -3.828125 C 17.207031 -2.960938 16.523438 -2.191406 15.640625 -1.515625 C 14.847656 -0.898438 13.941406 -0.429688 12.921875 -0.109375 C 11.898438 0.210938 10.820312 0.382812 9.6875 0.40625 C 8.550781 0.40625 7.46875 0.25 6.4375 -0.0625 C 5.40625 -0.375 4.488281 -0.847656 3.6875 -1.484375 C 2.488281 -2.390625 1.671875 -3.484375 1.234375 -4.765625 L 5.640625 -6.8125 C 5.640625 -6.601562 5.710938 -6.335938 5.859375 -6.015625 C 6.015625 -5.703125 6.25 -5.398438 6.5625 -5.109375 C 6.875 -4.816406 7.28125 -4.5625 7.78125 -4.34375 C 8.289062 -4.132812 8.914062 -4.03125 9.65625 -4.03125 C 10.238281 -4.03125 10.753906 -4.101562 11.203125 -4.25 C 11.660156 -4.40625 12.039062 -4.59375 12.34375 -4.8125 C 12.65625 -5.03125 12.890625 -5.28125 13.046875 -5.5625 C 13.203125 -5.851562 13.28125 -6.144531 13.28125 -6.4375 C 13.28125 -6.769531 13.171875 -7.082031 12.953125 -7.375 C 12.734375 -7.675781 12.390625 -7.910156 11.921875 -8.078125 C 11.078125 -8.367188 10.1875 -8.613281 9.25 -8.8125 C 8.320312 -9.007812 7.414062 -9.257812 6.53125 -9.5625 C 5.644531 -9.875 4.820312 -10.28125 4.0625 -10.78125 C 3.3125 -11.289062 2.710938 -12 2.265625 -12.90625 C 1.867188 -13.695312 1.671875 -14.546875 1.671875 -15.453125 C 1.671875 -16.460938 1.90625 -17.441406 2.375 -18.390625 C 2.851562 -19.335938 3.503906 -20.140625 4.328125 -20.796875 C 5.097656 -21.398438 5.96875 -21.863281 6.9375 -22.1875 C 7.90625 -22.519531 8.925781 -22.6875 10 -22.6875 C 11.070312 -22.6875 12.097656 -22.523438 13.078125 -22.203125 C 14.054688 -21.890625 14.929688 -21.429688 15.703125 -20.828125 C 16.460938 -20.253906 17.066406 -19.585938 17.515625 -18.828125 L 13.90625 -16.375 C 13.46875 -16.976562 12.914062 -17.460938 12.25 -17.828125 C 11.59375 -18.203125 10.851562 -18.390625 10.03125 -18.390625 C 8.894531 -18.390625 8.015625 -18.132812 7.390625 -17.625 C 6.773438 -17.125 6.46875 -16.460938 6.46875 -15.640625 C 6.46875 -15.265625 6.640625 -14.929688 6.984375 -14.640625 C 7.335938 -14.347656 7.789062 -14.082031 8.34375 -13.84375 C 8.90625 -13.613281 9.53125 -13.410156 10.21875 -13.234375 C 10.914062 -13.054688 11.601562 -12.875 12.28125 -12.6875 C 12.96875 -12.507812 13.613281 -12.328125 14.21875 -12.140625 C 14.832031 -11.953125 15.328125 -11.742188 15.703125 -11.515625 Z M 15.703125 -11.515625 "/></g></g></g><g fill="#231f20" fill-opacity="1"><g transform="translate(161.727298, 216.464782)"><g><path d="M 12.015625 -4.359375 C 13.023438 -4.359375 14.015625 -4.585938 14.984375 -5.046875 C 15.953125 -5.503906 16.929688 -6.28125 17.921875 -7.375 L 21.015625 -4.453125 C 19.773438 -2.847656 18.359375 -1.632812 16.765625 -0.8125 C 15.179688 0 13.546875 0.40625 11.859375 0.40625 C 10.347656 0.40625 8.925781 0.0976562 7.59375 -0.515625 C 6.269531 -1.140625 5.117188 -1.976562 4.140625 -3.03125 C 3.171875 -4.082031 2.40625 -5.304688 1.84375 -6.703125 C 1.289062 -8.097656 1.015625 -9.585938 1.015625 -11.171875 C 1.015625 -12.742188 1.300781 -14.222656 1.875 -15.609375 C 2.457031 -17.003906 3.238281 -18.226562 4.21875 -19.28125 C 5.207031 -20.332031 6.375 -21.160156 7.71875 -21.765625 C 9.070312 -22.378906 10.503906 -22.6875 12.015625 -22.6875 C 13.429688 -22.6875 14.773438 -22.421875 16.046875 -21.890625 C 17.316406 -21.367188 18.5625 -20.5 19.78125 -19.28125 L 17 -15.90625 C 16.113281 -16.71875 15.273438 -17.265625 14.484375 -17.546875 C 13.703125 -17.835938 12.878906 -17.984375 12.015625 -17.984375 C 11.148438 -17.984375 10.332031 -17.800781 9.5625 -17.4375 C 8.800781 -17.082031 8.132812 -16.597656 7.5625 -15.984375 C 7 -15.378906 6.550781 -14.660156 6.21875 -13.828125 C 5.894531 -13.003906 5.734375 -12.117188 5.734375 -11.171875 C 5.734375 -10.222656 5.894531 -9.335938 6.21875 -8.515625 C 6.550781 -7.691406 7 -6.96875 7.5625 -6.34375 C 8.132812 -5.726562 8.800781 -5.242188 9.5625 -4.890625 C 10.332031 -4.535156 11.148438 -4.359375 12.015625 -4.359375 Z M 12.015625 -4.359375 "/></g></g></g><g fill="#231f20" fill-opacity="1"><g transform="translate(183.801935, 216.464782)"><g><path d="M 12.046875 -22.6875 C 13.566406 -22.6875 15 -22.378906 16.34375 -21.765625 C 17.6875 -21.160156 18.859375 -20.332031 19.859375 -19.28125 C 20.859375 -18.226562 21.644531 -17.003906 22.21875 -15.609375 C 22.800781 -14.222656 23.09375 -12.742188 23.09375 -11.171875 C 23.09375 -9.609375 22.800781 -8.125 22.21875 -6.71875 C 21.644531 -5.3125 20.859375 -4.082031 19.859375 -3.03125 C 18.859375 -1.976562 17.6875 -1.140625 16.34375 -0.515625 C 15 0.0976562 13.566406 0.40625 12.046875 0.40625 C 10.535156 0.40625 9.101562 0.0976562 7.75 -0.515625 C 6.40625 -1.140625 5.238281 -1.976562 4.25 -3.03125 C 3.269531 -4.082031 2.488281 -5.3125 1.90625 -6.71875 C 1.332031 -8.125 1.046875 -9.609375 1.046875 -11.171875 C 1.046875 -12.742188 1.332031 -14.222656 1.90625 -15.609375 C 2.488281 -17.003906 3.269531 -18.226562 4.25 -19.28125 C 5.238281 -20.332031 6.40625 -21.160156 7.75 -21.765625 C 9.101562 -22.378906 10.535156 -22.6875 12.046875 -22.6875 Z M 12.046875 -4.359375 C 12.910156 -4.359375 13.71875 -4.535156 14.46875 -4.890625 C 15.226562 -5.242188 15.890625 -5.726562 16.453125 -6.34375 C 17.023438 -6.96875 17.472656 -7.691406 17.796875 -8.515625 C 18.128906 -9.335938 18.296875 -10.222656 18.296875 -11.171875 C 18.296875 -12.117188 18.128906 -13.003906 17.796875 -13.828125 C 17.472656 -14.660156 17.023438 -15.382812 16.453125 -16 C 15.890625 -16.625 15.226562 -17.113281 14.46875 -17.46875 C 13.71875 -17.832031 12.910156 -18.015625 12.046875 -18.015625 C 11.179688 -18.015625 10.367188 -17.832031 9.609375 -17.46875 C 8.859375 -17.113281 8.195312 -16.625 7.625 -16 C 7.0625 -15.382812 6.613281 -14.660156 6.28125 -13.828125 C 5.957031 -13.003906 5.796875 -12.117188 5.796875 -11.171875 C 5.796875 -10.222656 5.957031 -9.335938 6.28125 -8.515625 C 6.613281 -7.691406 7.0625 -6.96875 7.625 -6.34375 C 8.195312 -5.726562 8.859375 -5.242188 9.609375 -4.890625 C 10.367188 -4.535156 11.179688 -4.359375 12.046875 -4.359375 Z M 12.046875 -4.359375 "/></g></g></g><g fill="#231f20" fill-opacity="1"><g transform="translate(208.084019, 216.464782)"><g><path d="M 16.78125 -22.359375 L 21.546875 -22.359375 L 21.546875 0 L 17 0 L 6.25 -14.609375 L 6.25 0 L 1.484375 0 L 1.484375 -22.359375 L 5.96875 -22.359375 L 16.78125 -7.671875 Z M 16.78125 -22.359375 "/></g></g></g><g fill="#231f20" fill-opacity="1"><g transform="translate(231.262384, 216.464782)"><g><path d="M 12.015625 -4.359375 C 13.023438 -4.359375 14.015625 -4.585938 14.984375 -5.046875 C 15.953125 -5.503906 16.929688 -6.28125 17.921875 -7.375 L 21.015625 -4.453125 C 19.773438 -2.847656 18.359375 -1.632812 16.765625 -0.8125 C 15.179688 0 13.546875 0.40625 11.859375 0.40625 C 10.347656 0.40625 8.925781 0.0976562 7.59375 -0.515625 C 6.269531 -1.140625 5.117188 -1.976562 4.140625 -3.03125 C 3.171875 -4.082031 2.40625 -5.304688 1.84375 -6.703125 C 1.289062 -8.097656 1.015625 -9.585938 1.015625 -11.171875 C 1.015625 -12.742188 1.300781 -14.222656 1.875 -15.609375 C 2.457031 -17.003906 3.238281 -18.226562 4.21875 -19.28125 C 5.207031 -20.332031 6.375 -21.160156 7.71875 -21.765625 C 9.070312 -22.378906 10.503906 -22.6875 12.015625 -22.6875 C 13.429688 -22.6875 14.773438 -22.421875 16.046875 -21.890625 C 17.316406 -21.367188 18.5625 -20.5 19.78125 -19.28125 L 17 -15.90625 C 16.113281 -16.71875 15.273438 -17.265625 14.484375 -17.546875 C 13.703125 -17.835938 12.878906 -17.984375 12.015625 -17.984375 C 11.148438 -17.984375 10.332031 -17.800781 9.5625 -17.4375 C 8.800781 -17.082031 8.132812 -16.597656 7.5625 -15.984375 C 7 -15.378906 6.550781 -14.660156 6.21875 -13.828125 C 5.894531 -13.003906 5.734375 -12.117188 5.734375 -11.171875 C 5.734375 -10.222656 5.894531 -9.335938 6.21875 -8.515625 C 6.550781 -7.691406 7 -6.96875 7.5625 -6.34375 C 8.132812 -5.726562 8.800781 -5.242188 9.5625 -4.890625 C 10.332031 -4.535156 11.148438 -4.359375 12.015625 -4.359375 Z M 12.015625 -4.359375 "/></g></g></g><g fill="#231f20" fill-opacity="1"><g transform="translate(253.337023, 216.464782)"><g><path d="M 1.515625 -22.359375 L 15.484375 -22.359375 L 15.484375 -18.015625 L 6.3125 -18.015625 L 6.3125 -13.96875 L 14.390625 -13.96875 L 14.390625 -9.625 L 6.3125 -9.625 L 6.3125 -4.328125 L 15.484375 -4.328125 L 15.484375 0 L 1.515625 0 Z M 1.515625 -22.359375 "/></g></g></g><g fill="#231f20" fill-opacity="1"><g transform="translate(270.49219, 216.464782)"><g><path d="M 11.140625 -22.359375 C 12.023438 -22.359375 12.851562 -22.1875 13.625 -21.84375 C 14.40625 -21.5 15.082031 -21.023438 15.65625 -20.421875 C 16.238281 -19.828125 16.695312 -19.125 17.03125 -18.3125 C 17.375 -17.5 17.546875 -16.628906 17.546875 -15.703125 C 17.546875 -14.785156 17.375 -13.921875 17.03125 -13.109375 C 16.695312 -12.296875 16.238281 -11.582031 15.65625 -10.96875 C 15.082031 -10.363281 14.40625 -9.882812 13.625 -9.53125 C 12.851562 -9.1875 12.023438 -9.015625 11.140625 -9.015625 L 6.25 -9.015625 L 6.25 0 L 1.484375 0 L 1.484375 -22.359375 Z M 10.5 -13.375 C 11.113281 -13.375 11.644531 -13.597656 12.09375 -14.046875 C 12.550781 -14.503906 12.78125 -15.054688 12.78125 -15.703125 C 12.78125 -16.335938 12.550781 -16.878906 12.09375 -17.328125 C 11.644531 -17.785156 11.113281 -18.015625 10.5 -18.015625 L 6.25 -18.015625 L 6.25 -13.375 Z M 10.5 -13.375 "/></g></g></g><g fill="#231f20" fill-opacity="1"><g transform="translate(288.561861, 216.464782)"><g><path d="M 0.71875 -22.359375 L 16.90625 -22.359375 L 16.90625 -18.015625 L 11.203125 -18.015625 L 11.203125 0 L 6.4375 0 L 6.4375 -18.015625 L 0.71875 -18.015625 Z M 0.71875 -22.359375 "/></g></g></g><g fill="#231f20" fill-opacity="1"><g transform="translate(306.347718, 216.464782)"><g><path d="M 15.703125 -11.515625 C 16.585938 -10.984375 17.257812 -10.304688 17.71875 -9.484375 C 18.1875 -8.671875 18.421875 -7.726562 18.421875 -6.65625 C 18.421875 -5.644531 18.175781 -4.703125 17.6875 -3.828125 C 17.207031 -2.960938 16.523438 -2.191406 15.640625 -1.515625 C 14.847656 -0.898438 13.941406 -0.429688 12.921875 -0.109375 C 11.898438 0.210938 10.820312 0.382812 9.6875 0.40625 C 8.550781 0.40625 7.46875 0.25 6.4375 -0.0625 C 5.40625 -0.375 4.488281 -0.847656 3.6875 -1.484375 C 2.488281 -2.390625 1.671875 -3.484375 1.234375 -4.765625 L 5.640625 -6.8125 C 5.640625 -6.601562 5.710938 -6.335938 5.859375 -6.015625 C 6.015625 -5.703125 6.25 -5.398438 6.5625 -5.109375 C 6.875 -4.816406 7.28125 -4.5625 7.78125 -4.34375 C 8.289062 -4.132812 8.914062 -4.03125 9.65625 -4.03125 C 10.238281 -4.03125 10.753906 -4.101562 11.203125 -4.25 C 11.660156 -4.40625 12.039062 -4.59375 12.34375 -4.8125 C 12.65625 -5.03125 12.890625 -5.28125 13.046875 -5.5625 C 13.203125 -5.851562 13.28125 -6.144531 13.28125 -6.4375 C 13.28125 -6.769531 13.171875 -7.082031 12.953125 -7.375 C 12.734375 -7.675781 12.390625 -7.910156 11.921875 -8.078125 C 11.078125 -8.367188 10.1875 -8.613281 9.25 -8.8125 C 8.320312 -9.007812 7.414062 -9.257812 6.53125 -9.5625 C 5.644531 -9.875 4.820312 -10.28125 4.0625 -10.78125 C 3.3125 -11.289062 2.710938 -12 2.265625 -12.90625 C 1.867188 -13.695312 1.671875 -14.546875 1.671875 -15.453125 C 1.671875 -16.460938 1.90625 -17.441406 2.375 -18.390625 C 2.851562 -19.335938 3.503906 -20.140625 4.328125 -20.796875 C 5.097656 -21.398438 5.96875 -21.863281 6.9375 -22.1875 C 7.90625 -22.519531 8.925781 -22.6875 10 -22.6875 C 11.070312 -22.6875 12.097656 -22.523438 13.078125 -22.203125 C 14.054688 -21.890625 14.929688 -21.429688 15.703125 -20.828125 C 16.460938 -20.253906 17.066406 -19.585938 17.515625 -18.828125 L 13.90625 -16.375 C 13.46875 -16.976562 12.914062 -17.460938 12.25 -17.828125 C 11.59375 -18.203125 10.851562 -18.390625 10.03125 -18.390625 C 8.894531 -18.390625 8.015625 -18.132812 7.390625 -17.625 C 6.773438 -17.125 6.46875 -16.460938 6.46875 -15.640625 C 6.46875 -15.265625 6.640625 -14.929688 6.984375 -14.640625 C 7.335938 -14.347656 7.789062 -14.082031 8.34375 -13.84375 C 8.90625 -13.613281 9.53125 -13.410156 10.21875 -13.234375 C 10.914062 -13.054688 11.601562 -12.875 12.28125 -12.6875 C 12.96875 -12.507812 13.613281 -12.328125 14.21875 -12.140625 C 14.832031 -11.953125 15.328125 -11.742188 15.703125 -11.515625 Z M 15.703125 -11.515625 "/></g></g></g></svg>