<svg xmlns="http://www.w3.org/2000/svg" xmlns:xlink="http://www.w3.org/1999/xlink" width="500" zoomAndPan="magnify" viewBox="0 0 375 374.999991" height="500" preserveAspectRatio="xMidYMid meet" version="1.0"><defs><clipPath id="id1"><path d="M 101 72.1875 L 274 72.1875 L 274 224 L 101 224 Z M 101 72.1875 " clip-rule="nonzero"/></clipPath><clipPath id="id2"><path d="M 37.5 183 L 337.5 183 L 337.5 262 L 37.5 262 Z M 37.5 183 " clip-rule="nonzero"/></clipPath><clipPath id="id3"><path d="M 250 258 L 317 258 L 317 303.1875 L 250 303.1875 Z M 250 258 " clip-rule="nonzero"/></clipPath><clipPath id="id4"><path d="M 58 258 L 125 258 L 125 303.1875 L 58 303.1875 Z M 58 258 " clip-rule="nonzero"/></clipPath></defs><g clip-path="url(#id1)"><path fill="#4abd96" d="M 145.292969 223.894531 L 187.5 136.910156 L 229.707031 223.894531 C 247.125 221.78125 262.082031 218.398438 273.078125 214.175781 L 204.570312 72.1875 L 170.429688 72.1875 L 101.921875 214.175781 C 112.914062 218.398438 127.875 221.78125 145.292969 223.894531 " fill-opacity="1" fill-rule="nonzero"/></g><g clip-path="url(#id2)"><path fill="#4abd96" d="M 262.304688 183.867188 C 281.246094 189.15625 292.953125 196.441406 292.953125 204.484375 C 292.953125 220.644531 245.738281 233.742188 187.5 233.742188 C 129.261719 233.742188 82.046875 220.644531 82.046875 204.484375 C 82.046875 196.441406 93.753906 189.15625 112.691406 183.867188 C 67.78125 191.054688 37.550781 204.511719 37.550781 219.929688 C 37.550781 242.90625 104.683594 261.535156 187.5 261.535156 C 270.3125 261.535156 337.449219 242.90625 337.449219 219.929688 C 337.449219 204.511719 307.222656 191.054688 262.304688 183.867188 " fill-opacity="1" fill-rule="nonzero"/></g><g clip-path="url(#id3)"><path fill="#18795b" d="M 268.179688 303.1875 L 316.027344 303.1875 L 294.449219 258.460938 C 281.832031 261.792969 266.925781 264.535156 250.386719 266.515625 L 268.179688 303.1875 " fill-opacity="1" fill-rule="nonzero"/></g><g clip-path="url(#id4)"><path fill="#18795b" d="M 58.972656 303.1875 L 106.820312 303.1875 L 124.613281 266.515625 C 108.074219 264.535156 93.167969 261.792969 80.554688 258.460938 L 58.972656 303.1875 " fill-opacity="1" fill-rule="nonzero"/></g><path fill="#334a63" d="M 246.355469 258.207031 L 250.386719 266.515625 C 266.925781 264.535156 281.832031 261.792969 294.449219 258.460938 L 290.449219 250.175781 C 277.664062 253.527344 262.761719 256.257812 246.355469 258.207031 " fill-opacity="1" fill-rule="nonzero"/><path fill="#334a63" d="M 84.550781 250.175781 L 80.554688 258.460938 C 93.167969 261.792969 108.074219 264.535156 124.613281 266.515625 L 128.644531 258.207031 C 112.238281 256.257812 97.332031 253.527344 84.550781 250.175781 " fill-opacity="1" fill-rule="nonzero"/></svg>